<svg width="113" height="105" viewBox="0 0 113 105" fill="none" xmlns="http://www.w3.org/2000/svg">
<path d="M26.541 54.152C24.237 54.152 21.933 54.3653 19.629 54.792C18.9463 52.4027 18.5 50.304 18.5 48C18.5 46.6347 19.2023 45.704 20.397 45.704H36.653V74.12C36.653 75.912 36.9943 77.192 37.677 77.96C38.3597 78.728 39.597 79.112 41.389 79.112C41.4743 81.3307 40.877 83.08 39.597 84.36C38.4023 85.64 36.653 86.28 34.349 86.28C30.765 86.28 28.461 84.9573 27.437 82.312C25.0477 84.9573 21.7623 86.28 17.581 86.28C8.87699 86.28 4.52498 82.184 4.52498 73.992V48V14.088C4.52498 9.82132 5.97565 6.49332 8.87698 4.10399C11.7783 1.71466 15.661 0.519989 20.525 0.519989C25.4743 0.519989 29.3997 1.62932 32.301 3.84799C35.2023 5.98132 36.653 8.79732 36.653 12.296V26.888C36.653 28.424 35.5437 29.4907 33.325 30.088C32.1303 30.4293 30.9356 30.6 29.741 30.6C28.5463 30.6 27.3516 30.472 26.157 30.216C26.413 28.168 26.541 25.992 26.541 23.688V14.088C26.541 12.4667 25.9863 11.2293 24.877 10.376C23.7677 9.43732 22.317 8.96799 20.525 8.96799C18.733 8.96799 17.2823 9.43732 16.173 10.376C15.149 11.2293 14.637 12.4667 14.637 14.088V47.5V73.224C14.637 76.296 16.173 77.832 19.245 77.832C22.4023 77.832 24.8343 76.3387 26.541 73.352V54.152Z" fill="#54BAB9"/>
<path d="M84.032 32.776C84.032 29.5333 83.7333 26.0347 83.136 22.28C85.696 21.9387 88.4693 21.768 91.456 21.768C92.9067 21.768 93.632 22.408 93.632 23.688V31.5L101.5 52.5L93.632 72.712C93.632 76.9787 92.2667 80.3067 89.536 82.696C86.8907 85.0853 83.3493 86.28 78.912 86.28C74.56 86.28 71.232 85.128 68.928 82.824C66.624 85.128 63.296 86.28 58.944 86.28C54.6773 86.28 51.3067 85.1707 48.832 82.952C46.3573 80.7333 45.12 77.4907 45.12 73.224L62 52.5L45.12 32.904C45.12 31.112 44.7787 29.832 44.096 29.064C43.4987 28.296 42.304 27.912 40.512 27.912C40.4267 25.7787 41.024 24.1147 42.304 22.92C43.6693 21.64 45.5467 21 47.936 21C50.3253 21 52.032 21.6827 53.056 23.048C54.1653 24.4133 54.72 26.6747 54.72 29.832L64.576 52.5L54.72 73.224C54.72 74.6747 55.1893 75.912 56.128 76.936C57.0667 77.8747 58.2187 78.344 59.584 78.344C60.9493 78.344 62.1013 77.96 63.04 77.192C64.064 76.3387 64.576 75.272 64.576 73.992L80 52.5L64.576 32.776C64.576 29.5333 64.2773 26.0347 63.68 22.28C66.24 21.9387 69.0133 21.768 72 21.768C73.4507 21.768 74.176 22.408 74.176 23.688L82.624 52.5L74.176 73.992C74.176 75.272 74.6027 76.3387 75.456 77.192C76.3947 77.96 77.5893 78.344 79.04 78.344C80.4907 78.344 81.6853 77.8747 82.624 76.936C83.5627 75.912 84.032 74.6747 84.032 73.224L99.024 52.5L84.032 32.776Z" fill="#54BAB9"/>
<path d="M104.528 99.5C100.859 99.5 99.024 83.848 99.024 78.984C99.024 74.12 100.859 71.688 104.528 71.688C108.197 71.688 110.032 74.12 110.032 78.984C110.032 83.848 108.197 99.5 104.528 99.5Z" fill="#54BAB9"/>
<path d="M0.0449829 97.8L112.976 86.28V104.2H0.0449829V97.8Z" fill="#54BAB9"/>
</svg>
